<svg xmlns="http://www.w3.org/2000/svg" width="128" height="128" viewBox="0 0 128 128">
<g>
<path d="M 50.04 58.98 C48.99,59.54 45.24,60.00 41.70,60.00 L 35.28 60.00 L 34.63 54.49 C33.40,44.04 35.60,38.46 39.44,42.30 C40.15,43.01 42.71,44.18 45.12,44.90 C52.46,47.09 53.83,47.81 55.50,50.36 C57.02,52.68 56.98,52.93 54.53,55.38 C53.11,56.80 51.10,58.41 50.04,58.98 ZM 93.42 54.91 L 92.74 60.00 L 86.12 59.94 C79.31,59.88 77.48,59.20 73.32,55.15 C71.02,52.93 70.98,52.68 72.50,50.36 C74.17,47.81 75.54,47.09 82.88,44.90 C85.29,44.18 87.85,43.01 88.56,42.30 C92.39,38.46 94.78,44.65 93.42,54.91 ZM 78.50 57.84 C79.60,58.44 83.09,58.95 86.25,58.97 L 92.00 59.00 L 92.00 51.00 C92.00,44.70 91.69,43.00 90.56,43.00 C89.77,43.00 88.85,43.43 88.52,43.96 C88.20,44.49 85.36,45.70 82.22,46.65 C79.07,47.60 75.52,49.24 74.31,50.30 L 72.13 52.23 L 74.31 54.48 C75.52,55.73 77.40,57.24 78.50,57.84 ZM 36.00 51.00 L 36.00 59.00 L 41.55 59.00 C47.40,59.00 51.41,57.47 54.16,54.17 C55.73,52.30 55.70,52.07 53.66,50.28 C52.47,49.23 48.93,47.60 45.78,46.65 C42.64,45.70 39.80,44.49 39.48,43.96 C39.15,43.43 38.23,43.00 37.44,43.00 C36.31,43.00 36.00,44.70 36.00,51.00 ZM 55.23 91.47 C54.83,92.15 53.26,93.00 51.75,93.37 C49.42,93.94 49.00,93.72 49.00,91.95 C49.00,89.62 47.66,86.80 45.20,83.92 C43.36,81.77 39.03,81.37 37.22,83.18 C35.71,84.69 34.76,83.79 35.58,81.64 C36.03,80.47 37.45,80.00 40.53,80.00 C45.21,80.00 47.48,81.91 49.97,87.94 C51.14,90.76 51.36,90.86 53.33,89.48 C56.47,87.28 71.70,87.42 74.19,89.67 C75.92,91.23 76.12,91.22 77.48,89.42 C78.28,88.36 78.95,86.79 78.97,85.92 C79.02,83.36 83.37,80.00 86.62,80.00 C89.91,80.00 93.95,82.38 92.73,83.60 C92.31,84.02 91.43,83.83 90.78,83.18 C87.86,80.26 81.00,83.12 81.00,87.27 C81.00,88.16 80.55,89.16 80.00,89.50 C79.45,89.84 79.00,91.02 79.00,92.13 C79.00,93.75 78.56,94.00 76.75,93.45 C75.51,93.07 73.82,92.20 73.00,91.52 C70.98,89.85 56.22,89.81 55.23,91.47 Z" fill="rgb(20,11,14)"/>
<path d="M 33.52 24.41 C31.53,26.52 29.37,29.55 28.70,31.15 C27.58,33.88 27.42,33.94 26.33,32.18 C25.69,31.14 23.56,30.03 21.61,29.71 C17.66,29.07 16.74,28.45 10.12,22.00 C5.06,17.07 2.58,13.13 1.58,8.46 C1.06,6.01 1.42,4.95 3.41,3.09 C5.61,1.01 6.62,0.81 12.63,1.19 C16.40,1.43 19.54,2.12 19.75,2.75 C19.96,3.37 22.05,4.81 24.40,5.95 C29.30,8.32 31.80,10.84 34.92,16.54 L 37.13 20.58 ZM 105.13 30.00 C104.02,30.00 102.47,30.92 101.67,32.06 C100.26,34.08 100.22,34.06 99.24,31.26 C98.69,29.69 96.58,26.64 94.56,24.49 L 90.87 20.58 L 93.08 16.54 C96.39,10.49 98.45,8.59 106.03,4.62 C114.69,0.09 121.38,-0.36 124.88,3.37 C127.32,5.97 127.12,8.94 124.11,14.47 C120.25,21.60 109.97,30.00 105.13,30.00 Z" fill="rgb(26,161,166)"/>
<path d="M 90.92 20.48 L 90.69 20.23 L 86.78 24.10 C83.05,27.79 82.94,28.08 84.43,30.21 C86.68,33.41 86.37,35.00 83.50,35.00 C82.12,35.00 81.00,35.45 81.00,36.00 C81.00,36.55 81.45,37.00 82.00,37.00 C82.55,37.00 83.00,37.90 83.00,39.00 C83.00,40.78 82.33,41.00 77.03,41.00 L 71.05 41.00 L 72.25 47.00 L 55.75 47.00 L 56.35 44.00 L 56.95 41.00 L 50.97 41.00 C46.10,41.00 45.00,40.70 45.00,39.36 C45.00,38.46 45.79,37.12 46.75,36.39 C48.32,35.20 48.17,35.06 45.25,35.03 C41.62,35.00 41.15,33.65 43.57,30.21 C45.06,28.08 44.95,27.79 41.22,24.10 L 37.31 20.23 L 37.08 20.48 L 36.38 19.20 L 38.23 16.66 C42.00,11.49 45.82,10.59 64.00,10.59 C82.18,10.59 86.00,11.49 89.77,16.66 L 91.62 19.20 ZM 93.19 44.06 C92.34,41.11 90.67,40.19 88.56,42.30 C87.85,43.01 85.29,44.18 82.88,44.90 C75.54,47.09 74.17,47.81 72.50,50.36 C70.98,52.68 71.02,52.93 73.32,55.15 C77.48,59.20 79.31,59.88 86.12,59.94 L 92.74 60.00 L 83.62 59.97 C73.71,59.93 72.21,59.12 70.68,52.92 C69.81,49.37 73.83,45.77 81.19,43.51 C84.32,42.55 87.78,40.92 88.90,39.88 C91.33,37.61 92.13,37.49 91.36,39.50 C91.05,40.33 91.23,41.00 91.78,41.00 C92.35,41.00 92.84,42.22 93.19,44.06 ZM 50.04 58.98 C51.10,58.41 53.11,56.80 54.53,55.38 C56.98,52.93 57.02,52.68 55.50,50.36 C53.83,47.81 52.46,47.09 45.12,44.90 C42.71,44.18 40.15,43.01 39.44,42.30 C37.24,40.10 35.58,40.99 34.79,44.12 C35.12,42.23 35.63,41.00 36.23,41.00 C36.77,41.00 36.95,40.33 36.64,39.50 C36.32,38.67 36.50,38.00 37.03,38.00 C37.56,38.00 38.00,38.37 38.00,38.82 C38.00,40.10 45.13,43.69 49.07,44.39 C51.06,44.74 53.84,46.27 55.34,47.83 C57.74,50.34 57.91,50.96 56.94,53.75 C56.34,55.47 54.77,57.57 53.46,58.43 C51.80,59.52 48.66,60.00 43.17,60.00 L 41.70 60.00 C45.24,60.00 48.99,59.54 50.04,58.98 ZM 99.86 8.26 C103.55,5.30 108.15,3.02 112.49,1.88 C110.49,2.50 108.33,3.42 106.03,4.62 C103.41,6.00 101.44,7.12 99.86,8.26 ZM 26.98 7.36 C26.20,6.87 25.34,6.41 24.40,5.95 C23.78,5.65 23.18,5.33 22.63,5.01 C23.68,5.14 25.29,6.05 26.98,7.36 ZM 31.97 26.19 C30.46,28.10 29.15,30.15 28.75,31.31 C28.13,33.08 27.87,33.70 27.39,33.37 C27.75,33.37 28.07,32.68 28.70,31.15 C29.19,29.97 30.51,27.99 31.97,26.19 ZM 18.45 2.06 C17.20,1.69 15.16,1.36 12.86,1.20 C15.52,1.38 17.29,1.64 18.45,2.06 ZM 99.24 31.26 C100.16,33.89 100.25,34.06 101.42,32.41 C100.25,34.07 100.16,33.89 99.25,31.31 C98.84,30.12 97.47,28.00 95.92,26.05 C97.45,27.94 98.81,30.04 99.24,31.26 ZM 25.06 31.02 C24.07,30.41 22.77,29.90 21.57,29.71 C18.39,29.19 17.18,28.68 13.30,25.05 C17.19,28.69 18.40,29.19 21.61,29.71 C22.83,29.91 24.11,30.41 25.06,31.02 ZM 20.11 3.24 C19.95,3.08 19.84,2.94 19.78,2.82 C19.91,2.95 20.02,3.09 20.11,3.24 ZM 12.58 1.19 C9.11,0.97 7.32,0.95 6.00,1.37 C7.32,0.94 9.11,0.96 12.54,1.18 C12.55,1.18 12.57,1.19 12.58,1.19 Z" fill="rgb(162,32,30)"/>
<path d="M 0.00 64.00 L 0.00 0.00 L 64.00 0.00 L 128.00 0.00 L 128.00 64.00 L 128.00 128.00 L 64.00 128.00 L 0.00 128.00 L 0.00 64.00 ZM 55.23 91.47 C56.22,89.81 70.98,89.85 73.00,91.52 C73.82,92.20 75.51,93.07 76.75,93.45 C78.56,94.00 79.00,93.75 79.00,92.13 C79.00,91.02 79.45,89.84 80.00,89.50 C80.55,89.16 81.00,88.16 81.00,87.27 C81.00,83.12 87.86,80.26 90.78,83.18 C91.43,83.83 92.31,84.02 92.73,83.60 C93.95,82.38 89.91,80.00 86.62,80.00 C83.37,80.00 79.02,83.36 78.97,85.92 C78.95,86.79 78.28,88.36 77.48,89.42 C76.12,91.22 75.92,91.23 74.19,89.67 C71.70,87.42 56.47,87.28 53.33,89.48 C51.36,90.86 51.14,90.76 49.97,87.94 C47.48,81.91 45.21,80.00 40.53,80.00 C37.45,80.00 36.03,80.47 35.58,81.64 C34.76,83.79 35.71,84.69 37.22,83.18 C39.03,81.37 43.36,81.77 45.20,83.92 C47.66,86.80 49.00,89.62 49.00,91.95 C49.00,93.72 49.42,93.94 51.75,93.37 C53.26,93.00 54.83,92.15 55.23,91.47 ZM 53.46 58.43 C54.77,57.57 56.34,55.47 56.94,53.75 C57.91,50.96 57.74,50.34 55.34,47.83 C53.84,46.27 51.06,44.74 49.07,44.39 C45.13,43.69 38.00,40.10 38.00,38.82 C38.00,38.37 37.56,38.00 37.03,38.00 C36.50,38.00 36.32,38.67 36.64,39.50 C36.95,40.33 36.77,41.00 36.23,41.00 C34.76,41.00 33.90,48.26 34.63,54.49 L 35.28 60.00 L 43.17 60.00 C48.66,60.00 51.80,59.52 53.46,58.43 ZM 93.42 54.91 C94.19,49.05 93.25,41.00 91.78,41.00 C91.23,41.00 91.05,40.33 91.36,39.50 C92.13,37.49 91.33,37.61 88.90,39.88 C87.78,40.92 84.32,42.55 81.19,43.51 C73.83,45.77 69.81,49.37 70.68,52.92 C72.21,59.12 73.71,59.93 83.62,59.97 L 92.74 60.00 L 93.42 54.91 ZM 71.65 44.00 L 71.05 41.00 L 77.03 41.00 C82.33,41.00 83.00,40.78 83.00,39.00 C83.00,37.90 82.55,37.00 82.00,37.00 C81.45,37.00 81.00,36.55 81.00,36.00 C81.00,35.45 82.12,35.00 83.50,35.00 C86.37,35.00 86.68,33.41 84.43,30.21 C82.94,28.08 83.05,27.79 86.78,24.10 L 90.69 20.23 L 94.48 24.36 C96.56,26.64 98.71,29.76 99.25,31.31 C100.22,34.07 100.26,34.08 101.67,32.06 C102.47,30.92 104.02,30.00 105.13,30.00 C109.97,30.00 120.25,21.60 124.11,14.47 C127.12,8.94 127.32,5.97 124.88,3.37 C118.95,-2.94 99.31,4.59 93.87,15.25 L 91.76 19.39 L 89.77 16.66 C86.00,11.49 82.18,10.59 64.00,10.59 C45.82,10.59 42.00,11.49 38.23,16.66 L 36.24 19.39 L 34.09 15.18 C32.00,11.09 25.01,5.00 22.40,5.00 C21.68,5.00 20.67,4.24 20.15,3.30 C19.45,2.05 17.46,1.50 12.54,1.18 C6.63,0.81 5.61,1.02 3.41,3.09 C1.42,4.95 1.06,6.01 1.58,8.46 C2.58,13.13 5.06,17.07 10.12,22.00 C16.73,28.45 17.66,29.07 21.57,29.71 C23.50,30.02 25.68,31.14 26.42,32.19 C27.70,34.02 27.81,33.98 28.75,31.31 C29.29,29.76 31.44,26.64 33.52,24.36 L 37.31 20.23 L 41.22 24.10 C44.95,27.79 45.06,28.08 43.57,30.21 C41.15,33.65 41.62,35.00 45.25,35.03 C48.17,35.06 48.32,35.20 46.75,36.39 C45.79,37.12 45.00,38.46 45.00,39.36 C45.00,40.70 46.10,41.00 50.97,41.00 L 56.95 41.00 L 56.35 44.00 L 55.75 47.00 L 64.00 47.00 L 72.25 47.00 L 71.65 44.00 ZM 36.00 51.00 C36.00,44.70 36.31,43.00 37.44,43.00 C38.23,43.00 39.15,43.43 39.48,43.96 C39.80,44.49 42.64,45.70 45.78,46.65 C48.93,47.60 52.47,49.23 53.66,50.28 C55.70,52.07 55.73,52.30 54.16,54.17 C51.41,57.47 47.40,59.00 41.55,59.00 L 36.00 59.00 L 36.00 51.00 ZM 78.50 57.84 C77.40,57.24 75.52,55.73 74.31,54.48 L 72.13 52.23 L 74.31 50.30 C75.52,49.24 79.07,47.60 82.22,46.65 C85.36,45.70 88.20,44.49 88.52,43.96 C88.85,43.43 89.77,43.00 90.56,43.00 C91.69,43.00 92.00,44.70 92.00,51.00 L 92.00 59.00 L 86.25 58.97 C83.09,58.95 79.60,58.44 78.50,57.84 Z" fill="rgb(249,246,245)"/>
</g>
</svg>